<svg width="245" height="21" viewBox="0 0 245 21" fill="none" xmlns="http://www.w3.org/2000/svg">
<path d="M11.6999 0.412598C17.7957 0.412598 21.5037 3.39258 21.5037 6.50522C21.5037 9.61785 17.7925 12.5169 11.7161 12.5169H6.21557L6.23498 20.0009H0.0194128L0 0.422304L11.6999 0.412598ZM16.0841 6.50522C16.0841 5.0492 14.3401 4.08176 12.2014 4.08176H6.20263V8.84778H12.1852C14.3401 8.84778 16.0841 7.96447 16.0841 6.50522Z" fill="white"/>
<path d="M39.8013 11.8923C43.1016 10.8763 45.0074 8.77965 45.0074 6.52444C45.0074 3.41504 41.2994 0.435059 35.2068 0.435059H23.5037L23.5587 19.9716H29.7613L29.7063 12.5297V4.10098H35.6889C37.8406 4.10098 39.5878 5.07166 39.5878 6.52444C39.5878 7.97722 37.8406 8.87025 35.6889 8.87025L31.748 8.92201L39.7463 19.978H45.6804L39.8013 11.8923Z" fill="white"/>
<path d="M74.319 10.2051C74.319 16.6763 68.2911 20.0316 61.0013 20.0316C53.7116 20.0316 47.6804 16.6536 47.6804 10.2051C47.6804 3.90216 53.7083 0.381836 61.0013 0.381836C68.6438 0.381836 74.319 4.03158 74.319 10.2051ZM68.2944 10.2051C68.2944 6.1606 65.1461 4.29367 61.0013 4.29367C56.8565 4.29367 53.7083 6.18325 53.7083 10.2051C53.7083 14.2269 56.8468 16.1197 61.0013 16.1197C65.1558 16.1197 68.2944 14.2658 68.2944 10.2051Z" fill="white"/>
<path d="M76.3191 19.996L76.3838 0.41748H96.0627V4.19665H82.5864V7.56167H92.963V11.3408H82.5864L82.525 19.996H76.3191Z" fill="white"/>
<path d="M118.285 0.376953L104.21 20.0364H98.0627L112.138 0.376953H118.285Z" fill="#FCC722"/>
<path d="M145.973 0.477051V4.25622H136.237L136.253 19.9359H130.05L130.031 4.25622H120.285V0.477051H145.973Z" fill="white"/>
<path d="M147.972 7.74463H150.561C151.706 7.74463 152.311 8.21702 152.311 9.0874C152.335 9.35631 152.264 9.62507 152.108 9.84601C151.953 10.0669 151.725 10.2258 151.464 10.2943C152.001 10.3946 152.182 10.5984 152.237 11.4753C152.279 12.1224 152.311 12.5268 152.46 12.6692H151.648C151.565 12.3668 151.523 12.0543 151.525 11.7406C151.464 10.7699 151.308 10.5531 150.506 10.5531H148.671V12.6692H147.972V7.74463ZM148.671 9.97718H150.289C151.192 9.97718 151.619 9.77982 151.619 9.14241C151.619 8.505 151.179 8.32056 150.228 8.32056H148.675L148.671 9.97718Z" fill="white"/>
<path d="M154.46 7.74121H158.375V8.38833H155.159V9.82493H158.178V10.4721H155.159V12.0251H158.421V12.6722H154.46V7.74121Z" fill="white"/>
<path d="M163.113 12.7951C161.437 12.7951 160.421 11.7694 160.421 10.2066C160.421 8.64385 161.437 7.61816 163.119 7.61816C164.497 7.61816 165.455 8.39794 165.556 9.53687H164.831C164.695 8.75062 164.057 8.27499 163.113 8.27499C161.864 8.27499 161.145 9.003 161.145 10.2163C161.145 11.4297 161.873 12.1577 163.119 12.1577C164.09 12.1577 164.769 11.6076 164.883 10.7826H165.611C165.481 11.9862 164.51 12.7951 163.113 12.7951Z" fill="white"/>
<path d="M167.614 7.74463H170.202C171.348 7.74463 171.953 8.21702 171.953 9.0874C171.977 9.35631 171.905 9.62507 171.75 9.84601C171.595 10.0669 171.366 10.2258 171.105 10.2943C171.642 10.3946 171.823 10.5984 171.878 11.4753C171.92 12.1224 171.953 12.5268 172.102 12.6692H171.289C171.206 12.3668 171.165 12.0543 171.167 11.7406C171.105 10.7699 170.95 10.5531 170.147 10.5531H168.309V12.6692H167.611L167.614 7.74463ZM168.313 9.97718H169.931C170.833 9.97718 171.26 9.77982 171.26 9.14241C171.26 8.505 170.82 8.32056 169.869 8.32056H168.316L168.313 9.97718Z" fill="white"/>
<path d="M174.8 7.67969V10.4752C174.8 11.5527 175.247 12.093 176.273 12.093C177.298 12.093 177.758 11.5592 177.758 10.4752V7.67969H178.457V10.7664C178.457 12.0607 177.703 12.7337 176.279 12.7337C174.855 12.7337 174.102 12.0477 174.102 10.7664V7.67969H174.8Z" fill="white"/>
<path d="M181.152 12.6692H180.457V7.74463H181.152V12.6692Z" fill="white"/>
<path d="M187.608 7.74445V8.39157H185.731V12.6723H185.032V8.38833H183.152V7.74121L187.608 7.74445Z" fill="white"/>
<path d="M190.653 7.74463L192.552 12.0318L194.493 7.74463H195.532V12.6692H194.853V8.34645L192.911 12.6692H192.206L190.287 8.34645V12.6692H189.608V7.74463H190.653Z" fill="white"/>
<path d="M197.532 7.74121H201.444V8.38833H198.231V9.82493H201.25V10.4721H198.231V12.0251H201.492V12.6722H197.532V7.74121Z" fill="white"/>
<path d="M204.428 7.74463L207.527 11.9509V7.74463H208.207V12.6692H207.262L204.169 8.46293V12.6692H203.492V7.74463H204.428Z" fill="white"/>
<path d="M214.662 7.74445V8.39157H212.785V12.6723H212.086V8.38833H210.207V7.74121L214.662 7.74445Z" fill="white"/>
</svg>
