<svg width="151" height="20" viewBox="0 0 151 20" fill="none" xmlns="http://www.w3.org/2000/svg">
<path d="M11.6999 0.00976562C17.7957 0.00976562 21.5037 2.98975 21.5037 6.10238C21.5037 9.21502 17.7925 12.1141 11.7161 12.1141H6.21557L6.23498 19.598H0.0194128L0 0.019472L11.6999 0.00976562ZM16.0841 6.10238C16.0841 4.64637 14.3401 3.67892 12.2014 3.67892H6.20263V8.44495H12.1852C14.3401 8.44495 16.0841 7.56163 16.0841 6.10238Z" fill="white"/>
<path d="M78.9326 9.86232C78.9326 16.3335 72.9047 19.6888 65.6149 19.6888C58.3251 19.6888 52.2939 16.3108 52.2939 9.86232C52.2939 3.55939 58.3218 0.0390625 65.6149 0.0390625C73.2573 0.0390625 78.9326 3.68881 78.9326 9.86232ZM72.9079 9.86232C72.9079 5.81783 69.7597 3.9509 65.6149 3.9509C61.4701 3.9509 58.3219 5.84048 58.3219 9.86232C58.3219 13.8842 61.4604 15.777 65.6149 15.777C69.7694 15.777 72.9079 13.923 72.9079 9.86232Z" fill="white"/>
<path d="M83.0508 19.6596L83.1155 0.0810547H102.794V3.86023H89.3181V7.22524H99.6947V11.0044H89.3181L89.2566 19.6596H83.0508Z" fill="white"/>
<path d="M120.891 0L106.817 19.6594H100.669L114.744 0H120.891Z" fill="#FCC722"/>
<path d="M150.598 0.0712891V3.85046H140.862L140.878 19.5301H134.675L134.656 3.85046H124.91V0.0712891H150.598Z" fill="white"/>
<path d="M42.5897 11.5734C45.89 10.5575 47.7957 8.4608 47.7957 6.2056C47.7957 3.09619 44.0877 0.116211 37.9951 0.116211H26.292L26.347 19.6527H32.5496L32.4946 12.2109V3.78214H38.4772C40.6289 3.78214 42.3761 4.75281 42.3761 6.2056C42.3761 7.65838 40.6289 8.5514 38.4772 8.5514L34.5363 8.60316L42.5347 19.6592H48.4687L42.5897 11.5734Z" fill="white"/>
</svg>
