<svg width="124" height="124" viewBox="0 0 124 124" fill="none" xmlns="http://www.w3.org/2000/svg">
<rect width="124" height="124" rx="18" fill="#F5F7F9"/>
<g clip-path="url(#clip0_431_9582)">
<path d="M62 32C54.5756 32 47.4487 34.9518 42.2031 40.2009C36.9521 45.4521 34.0015 52.5738 34 60C34 67.4231 36.9531 74.5499 42.2031 79.7991C47.4487 85.0482 54.5756 88 62 88C69.4244 88 76.5513 85.0482 81.7969 79.7991C87.0469 74.5499 90 67.4231 90 60C90 52.5769 87.0469 45.4501 81.7969 40.2009C76.5513 34.9518 69.4244 32 62 32Z" fill="#FCC722"/>
<path d="M68 66L62 60L56 66" stroke="#2B2B2B" stroke-width="2" stroke-linecap="round" stroke-linejoin="round"/>
<path d="M62 60V73.5" stroke="#2B2B2B" stroke-width="2" stroke-linecap="round" stroke-linejoin="round"/>
<path d="M74.5852 69.5852C76.0482 68.7876 77.2039 67.5255 77.87 65.9982C78.5361 64.4708 78.6745 62.7651 78.2635 61.1503C77.8525 59.5354 76.9154 58.1035 75.6002 57.0804C74.285 56.0573 72.6665 55.5013 71.0002 55.5002H69.1102C68.6562 53.7441 67.8099 52.1137 66.6351 50.7317C65.4603 49.3497 63.9875 48.252 62.3273 47.5211C60.6672 46.7903 58.863 46.4453 57.0504 46.512C55.2377 46.5788 53.4638 47.0557 51.862 47.9067C50.2601 48.7578 48.8721 49.9609 47.8021 51.4256C46.7322 52.8903 46.0082 54.5785 45.6847 56.3633C45.3611 58.1481 45.4463 59.983 45.934 61.7301C46.4217 63.4772 47.299 65.091 48.5002 66.4502" stroke="#2B2B2B" stroke-width="2" stroke-linecap="round" stroke-linejoin="round"/>
<path d="M68 66L62 60L56 66" stroke="#2B2B2B" stroke-width="2" stroke-linecap="round" stroke-linejoin="round"/>
</g>
<defs>
<clipPath id="clip0_431_9582">
<rect width="56" height="56" fill="white" transform="translate(34 32)"/>
</clipPath>
</defs>
</svg>
