<svg width="151" height="20" viewBox="0 0 151 20" fill="none" xmlns="http://www.w3.org/2000/svg">
<path d="M11.6999 0.00976562C17.7957 0.00976562 21.5037 2.98975 21.5037 6.10238C21.5037 9.21502 17.7925 12.1141 11.7161 12.1141H6.21557L6.23498 19.598H0.0194128L0 0.019472L11.6999 0.00976562ZM16.0841 6.10238C16.0841 4.64637 14.3401 3.67892 12.2014 3.67892H6.20263V8.44495H12.1852C14.3401 8.44495 16.0841 7.56163 16.0841 6.10238Z" fill="#2B2B2B"/>
<path d="M78.9323 9.86232C78.9323 16.3335 72.9044 19.6888 65.6146 19.6888C58.3248 19.6888 52.2937 16.3108 52.2937 9.86232C52.2937 3.55939 58.3216 0.0390625 65.6146 0.0390625C73.2571 0.0390625 78.9323 3.68881 78.9323 9.86232ZM72.9076 9.86232C72.9076 5.81783 69.7594 3.9509 65.6146 3.9509C61.4698 3.9509 58.3216 5.84048 58.3216 9.86232C58.3216 13.8842 61.4601 15.777 65.6146 15.777C69.7691 15.777 72.9076 13.923 72.9076 9.86232Z" fill="#2B2B2B"/>
<path d="M83.0513 19.6596L83.116 0.0810547H102.795V3.86023H89.3186V7.22524H99.6951V11.0044H89.3186L89.2571 19.6596H83.0513Z" fill="#2B2B2B"/>
<path d="M120.891 0L106.817 19.6594H100.669L114.744 0H120.891Z" fill="#FCC722"/>
<path d="M150.597 0.0712891V3.85046H140.861L140.878 19.5301H134.675L134.656 3.85046H124.91V0.0712891H150.597Z" fill="#2B2B2B"/>
<path d="M42.5901 11.5739C45.8904 10.558 47.7962 8.46129 47.7962 6.20608C47.7962 3.09668 44.0882 0.116699 37.9956 0.116699H26.2925L26.3475 19.6532H32.5501L32.4951 12.2113V3.78262H38.4777C40.6294 3.78262 42.3766 4.7533 42.3766 6.20608C42.3766 7.65886 40.6294 8.55189 38.4777 8.55189L34.5368 8.60365L42.5351 19.6597H48.4692L42.5901 11.5739Z" fill="#2B2B2B"/>
</svg>
